<?xml version="1.0" ?><svg id="Layer_1_1_" style="enable-background:new 0 0 128 128;" version="1.1" viewBox="0 0 128 128" xml:space="preserve" xmlns="http://www.w3.org/2000/svg" xmlns:xlink="http://www.w3.org/1999/xlink"><g><path d="M122,9H1v100v9v1h121c2.757,0,5-2.243,5-5V14C127,11.243,124.757,9,122,9z M125,14v96.026c-0.838-0.635-1.87-1.026-3-1.026   h-1V61h-2v48h-2V11h2v48h2V11h1C123.654,11,125,12.346,125,14z M3,11h112v98H3V11z M122,117h-4v-4h-2v4h-2v-4h-2v4h-2v-4h-2v4h-2   v-4h-2v4h-2v-4h-2v4h-2v-4h-2v4h-2v-4h-2v4h-2v-4h-2v4h-2v-4h-2v4h-2v-4h-2v4h-2v-4h-2v4h-2v-4h-2v4h-2v-4h-2v4h-2v-4h-2v4h-2v-4   h-2v4h-2v-4h-2v4h-2v-4h-2v4h-2v-4h-2v4h-2v-4h-2v4h-2v-4h-2v4h-2v-4h-2v4h-2v-4h-2v4h-2v-4h-2v4h-2v-4h-2v4h-2v-4h-2v4h-2v-4h-2v4   h-2v-4h-2v4h-2v-4H8v4H3v-6h119c1.654,0,3,1.346,3,3S123.654,117,122,117z"/><path d="M59,14c-25.364,0-46,20.636-46,46s20.636,46,46,46s46-20.636,46-46S84.364,14,59,14z M48,60c0-6.065,4.935-11,11-11   s11,4.935,11,11s-4.935,11-11,11S48,66.065,48,60z M46.648,55.967c-0.317,0.967-0.517,1.983-0.598,3.033H15.025   c0.118-5.245,1.155-10.264,2.962-14.906L46.648,55.967z M46.051,61c0.081,1.051,0.281,2.067,0.598,3.033L17.987,75.906   c-1.806-4.642-2.844-9.661-2.962-14.906H46.051z M71.949,61h31.025c-0.118,5.245-1.155,10.264-2.962,14.906L71.352,64.033   C71.668,63.067,71.869,62.051,71.949,61z M71.949,59c-0.081-1.051-0.281-2.067-0.598-3.033l16.031-6.64l-0.766-1.848L70.58,54.122   c-0.472-0.926-1.048-1.787-1.718-2.569l21.927-21.927c3.502,3.664,6.378,7.926,8.457,12.621l-10.629,4.402l0.766,1.848l10.63-4.403   c1.806,4.642,2.844,9.661,2.962,14.906H71.949z M59,16c11.772,0,22.47,4.656,30.375,12.212L67.447,50.139   C65.173,48.187,62.225,47,59,47c-5.052,0-9.429,2.902-11.58,7.122L22.445,43.776C28.3,30.598,40.741,21.578,55.096,20.188   l-0.192-1.99c-15.092,1.461-28.169,10.951-34.307,24.813l-1.843-0.763C25.592,26.805,41.054,16,59,16z M59,104   c-11.772,0-22.47-4.656-30.375-12.212l11.082-11.081l-1.414-1.414L27.211,90.374c-3.502-3.664-6.378-7.926-8.457-12.621   L47.42,65.878c0.472,0.926,1.048,1.787,1.718,2.569l-8.846,8.846l1.414,1.414l8.846-8.846C52.827,71.813,55.775,73,59,73   c5.052,0,9.429-2.902,11.58-7.122l28.666,11.874C92.408,93.195,76.946,104,59,104z"/><path d="M59,20v-2c-0.687,0-1.37,0.016-2.048,0.049l0.097,1.998C57.695,20.016,58.346,20,59,20z"/><path d="M59,66c3.309,0,6-2.691,6-6s-2.691-6-6-6s-6,2.691-6,6S55.691,66,59,66z M59,56c2.206,0,4,1.794,4,4s-1.794,4-4,4   s-4-1.794-4-4S56.794,56,59,56z"/></g></svg>