<?xml version="1.0" ?><svg id="Layer_1_1_" style="enable-background:new 0 0 128 128;" version="1.1" viewBox="0 0 128 128" xml:space="preserve" xmlns="http://www.w3.org/2000/svg" xmlns:xlink="http://www.w3.org/1999/xlink"><g><path d="M64,50c-16.542,0-30,13.458-30,30s13.458,30,30,30s30-13.458,30-30S80.542,50,64,50z M82.949,81   c-0.235,4.484-2.024,8.553-4.847,11.688l-6.364-6.364C73.15,84.6,74,82.398,74,80s-0.85-4.6-2.262-6.324l6.364-6.364   c2.824,3.135,4.612,7.204,4.847,11.688H76v2H82.949z M63,92v6.949c-4.484-0.235-8.553-2.024-11.688-4.847l6.364-6.364   C59.401,89.15,61.603,90,64,90s4.599-0.85,6.324-2.262l6.364,6.364c-3.135,2.824-7.204,4.612-11.688,4.847V92H63z M45.051,79   c0.235-4.484,2.024-8.553,4.847-11.688l6.364,6.364C54.85,75.4,54,77.602,54,80s0.85,4.6,2.262,6.324l-6.364,6.364   c-2.824-3.135-4.612-7.204-4.847-11.688H52v-2H45.051z M65,68v-6.949c4.484,0.235,8.553,2.024,11.688,4.847l-6.364,6.364   C68.599,70.85,66.397,70,64,70s-4.599,0.85-6.324,2.262l-6.364-6.364c3.135-2.824,7.204-4.612,11.688-4.847V68H65z M64,88   c-4.411,0-8-3.589-8-8s3.589-8,8-8s8,3.589,8,8S68.411,88,64,88z M78.101,64.484c-3.5-3.184-8.067-5.195-13.101-5.434v-7.025   c6.966,0.246,13.291,3.046,18.066,7.495L78.101,64.484z M63,59.051c-5.035,0.239-9.602,2.25-13.101,5.434l-4.964-4.964   c4.775-4.448,11.099-7.248,18.066-7.495V59.051z M48.484,65.898c-3.184,3.5-5.195,8.067-5.434,13.102h-7.025   c0.246-6.966,3.046-13.291,7.495-18.066L48.484,65.898z M43.051,81c0.239,5.035,2.25,9.602,5.434,13.102l-4.964,4.964   C39.072,94.291,36.272,87.966,36.025,81H43.051z M49.899,95.516c3.5,3.184,8.067,5.195,13.101,5.434v7.025   c-6.966-0.246-13.291-3.046-18.066-7.495L49.899,95.516z M65,100.949c5.035-0.239,9.602-2.25,13.101-5.434l4.964,4.964   c-4.775,4.448-11.099,7.248-18.066,7.495V100.949z M79.516,94.102c3.184-3.5,5.195-8.067,5.434-13.102h7.025   c-0.246,6.966-3.046,13.291-7.495,18.066L79.516,94.102z M84.949,79c-0.239-5.035-2.25-9.602-5.434-13.102l4.964-4.964   c4.448,4.775,7.248,11.099,7.495,18.066H84.949z"/><path d="M122,44H95V30c1.103,0,2-0.897,2-2v-2c0-1.103-0.897-2-2-2V14c0-1.103-0.897-2-2-2h-2c-1.103,0-2,0.897-2,2v10h-2V14   c0-1.103-0.897-2-2-2h-2c-1.103,0-2,0.897-2,2v10h-2V14c0-1.103-0.897-2-2-2h-2c-1.103,0-2,0.897-2,2v4h2v-4h2v10h-2v-4h-2v4h-2V14   c0-1.103-0.897-2-2-2h-2c-1.103,0-2,0.897-2,2v10h-2V14c0-1.103-0.897-2-2-2h-2c-1.103,0-2,0.897-2,2v10h-2V14c0-1.103-0.897-2-2-2   h-2c-1.103,0-2,0.897-2,2v10c-1.103,0-2,0.897-2,2v2c0,1.103,0.897,2,2,2v14H6c-2.757,0-5,2.243-5,5v62c0,2.757,2.243,5,5,5h116   c2.757,0,5-2.243,5-5V49C127,46.243,124.757,44,122,44z M93,44h-2v-8h-2v8h-2V30h2v4h2v-4h2V44z M61,30v14h-2V30H61z M63,30h2v14   h-2V30z M67,30h2v14h-2V30z M71,30h2v14h-2V30z M75,30h2v14h-2V30z M79,30h2v14h-2V30z M83,30h2v14h-2V30z M91,14h2v10h-2V14z    M83,14h2v10h-2V14z M67,14h2v10h-2V14z M59,14h2v10h-2V14z M51,14h2v10h-2V14z M49,26h46v2H49V26z M51,30h2v6h2v-6h2v14h-2v-6h-2   v6h-2V30z M6,114c-1.654,0-3-1.346-3-3V49c0-1.654,1.346-3,3-3h90c1.654,0,3,1.346,3,3v62c0,1.654-1.346,3-3,3H6z M122,114H99.974   c0.635-0.838,1.026-1.87,1.026-3V49c0-1.13-0.391-2.162-1.026-3H122c1.654,0,3,1.346,3,3v11h-17c-1.654,0-3,1.346-3,3v34   c0,1.654,1.346,3,3,3h17v11C125,112.654,123.654,114,122,114z M125,62v36h-17c-0.552,0-1-0.449-1-1V63c0-0.551,0.448-1,1-1H125z"/><path d="M27,50H9c-1.103,0-2,0.897-2,2v16c0,1.103,0.897,2,2,2h18c1.103,0,2-0.897,2-2V52C29,50.897,28.103,50,27,50z M27,68H9V52   h18V68z"/><rect height="3" width="2" x="17" y="62"/><rect height="3" width="2" x="12" y="56"/><rect height="3" width="2" x="22" y="56"/><path d="M27,84H9c-1.103,0-2,0.897-2,2v12c0,1.103,0.897,2,2,2h18c1.103,0,2-0.897,2-2V86C29,84.897,28.103,84,27,84z M27,98H9V86   h18V98z"/><rect height="8" width="2" x="12" y="88"/><rect height="8" width="2" x="22" y="88"/><rect height="2" width="22" x="7" y="74"/><rect height="2" width="22" x="7" y="78"/><rect height="2" width="10" x="7" y="104"/><rect height="2" width="10" x="19" y="104"/><rect height="2" width="22" x="7" y="108"/><rect height="2" width="2" x="121" y="64"/><rect height="2" width="2" x="117" y="64"/><rect height="2" width="2" x="113" y="64"/><rect height="2" width="2" x="109" y="64"/><rect height="2" width="2" x="121" y="70"/><rect height="2" width="2" x="117" y="70"/><rect height="2" width="2" x="113" y="70"/><rect height="2" width="2" x="109" y="70"/><rect height="2" width="2" x="121" y="76"/><rect height="2" width="2" x="117" y="76"/><rect height="2" width="2" x="113" y="76"/><rect height="2" width="2" x="109" y="76"/><rect height="2" width="2" x="121" y="82"/><rect height="2" width="2" x="117" y="82"/><rect height="2" width="2" x="113" y="82"/><rect height="2" width="2" x="109" y="82"/><rect height="2" width="2" x="121" y="88"/><rect height="2" width="2" x="117" y="88"/><rect height="2" width="2" x="113" y="88"/><rect height="2" width="2" x="109" y="88"/><rect height="2" width="2" x="121" y="94"/><rect height="2" width="2" x="117" y="94"/><rect height="2" width="2" x="113" y="94"/><rect height="2" width="2" x="109" y="94"/></g></svg>