<?xml version="1.0" ?><svg enable-background="new 0 0 52 52" id="Layer_1" version="1.1" viewBox="0 0 52 52" xml:space="preserve" xmlns="http://www.w3.org/2000/svg" xmlns:xlink="http://www.w3.org/1999/xlink"><g><g><g><path d="M50,36.0002441H2V15.9997559h48V36.0002441z M4,34.0002441h44V17.9997559H4V34.0002441z"/></g></g><g><g><path d="M12,27.9997559H6v-8h6V27.9997559z M8,25.9997559h2v-4H8V25.9997559z"/></g></g><g><g><path d="M20.2587891,27.9997559h-6v-8h6V27.9997559z M16.2587891,25.9997559h2v-4h-2V25.9997559z"/></g></g><g><g><path d="M29,27.9997559h-6v-8h6V27.9997559z M25,25.9997559h2v-4h-2V25.9997559z"/></g></g><g><g><path d="M37.4912109,27.9997559h-6v-8h6V27.9997559z M33.4912109,25.9997559h2v-4h-2V25.9997559z"/></g></g><g><g><path d="M46,27.9997559h-6v-8h6V27.9997559z M42,25.9997559h2v-4h-2V25.9997559z"/></g></g><g><g><rect height="5.0004883" width="2" x="44" y="29.9997559"/></g></g><g><g><rect height="5.0004883" width="2" x="39.777832" y="29.9997559"/></g></g><g><g><rect height="5.0004883" width="2" x="35.5556641" y="29.9997559"/></g></g><g><g><rect height="5.0004883" width="2" x="31.3334961" y="29.9997559"/></g></g><g><g><rect height="5.0004883" width="2" x="27.1108398" y="29.9997559"/></g></g><g><g><rect height="5.0004883" width="2" x="22.8886719" y="29.9997559"/></g></g><g><g><rect height="5.0004883" width="2" x="18.6665039" y="29.9997559"/></g></g><g><g><rect height="5.0004883" width="2" x="14.4443359" y="29.9997559"/></g></g><g><g><rect height="5.0004883" width="2" x="10.222168" y="29.9997559"/></g></g><g><g><rect height="5.0004883" width="2" x="6" y="29.9997559"/></g></g></g></svg>